<svg xmlns="http://www.w3.org/2000/svg" width="40" height="34" viewBox="0 0 40 34">
  <metadata><?xpacket begin="﻿" id="W5M0MpCehiHzreSzNTczkc9d"?>
<x:xmpmeta xmlns:x="adobe:ns:meta/" x:xmptk="Adobe XMP Core 5.6-c138 79.159824, 2016/09/14-01:09:01        ">
   <rdf:RDF xmlns:rdf="http://www.w3.org/1999/02/22-rdf-syntax-ns#">
      <rdf:Description rdf:about=""/>
   </rdf:RDF>
</x:xmpmeta>
                                                                                                    
                                                                                                    
                                                                                                    
                                                                                                    
                                                                                                    
                                                                                                    
                                                                                                    
                                                                                                    
                                                                                                    
                                                                                                    
                                                                                                    
                                                                                                    
                                                                                                    
                                                                                                    
                                                                                                    
                                                                                                    
                                                                                                    
                                                                                                    
                                                                                                    
                                                                                                    
                           
<?xpacket end="w"?></metadata>
<defs>
    <style>
      .cls-1 {
        fill: #80909c;
        fill-rule: evenodd;
      }
    </style>
  </defs>
  <path id="Иконка" class="cls-1" d="M591.976,756.34h-3.22a0.573,0.573,0,0,0,0,1.146h3.22a0.888,0.888,0,0,1,.884.889v7.279a4.4,4.4,0,0,1-4.38,4.4h-1.286v-0.944h0a1.016,1.016,0,0,0-.806-1,1.053,1.053,0,0,0-.2-0.02h-0.319v-2.793a0.9,0.9,0,0,0-.892-0.9H582.35a0.9,0.9,0,0,0-.892.9V768.1h-0.319a1.053,1.053,0,0,0-.2.02,1.016,1.016,0,0,0-.806,1h0v0.944H567.871v-0.944h0a1.016,1.016,0,0,0-.806-1,1.053,1.053,0,0,0-.2-0.02h-0.319v-2.793a0.9,0.9,0,0,0-.892-0.9h-2.624a0.9,0.9,0,0,0-.891.9V768.1h-0.319a1.053,1.053,0,0,0-.2.02,1.016,1.016,0,0,0-.806,1h0v0.944H559.52a4.4,4.4,0,0,1-4.38-4.4v-7.279a0.888,0.888,0,0,1,.885-0.889h29.118a0.573,0.573,0,0,0,0-1.146H582.37V753.8a3.157,3.157,0,0,0-3.145-3.162h-0.512A0.974,0.974,0,0,0,577.8,750H570.2a0.974,0.974,0,0,0-.91.634h-0.512a3.157,3.157,0,0,0-3.145,3.162v2.545h-9.606A2.03,2.03,0,0,0,554,758.375v16.117a0.57,0.57,0,1,0,1.14,0v-5.467a5.5,5.5,0,0,0,4.38,2.178h1.286v0.436a1.014,1.014,0,0,0,1.01,1.016h0.319v1.474a2.2,2.2,0,1,0,4.407,0v-1.474h0.319a1.014,1.014,0,0,0,1.01-1.016V771.2h12.258v0.436a1.014,1.014,0,0,0,1.01,1.016h0.319v1.474a2.2,2.2,0,1,0,4.407,0v-1.474h0.319a1.014,1.014,0,0,0,1.01-1.016V771.2h1.286a5.5,5.5,0,0,0,4.38-2.178v12.94a0.888,0.888,0,0,1-.885.889H556.024a0.888,0.888,0,0,1-.884-0.889v-3.841a0.57,0.57,0,1,0-1.14,0v3.841A2.032,2.032,0,0,0,556.024,784h35.951A2.032,2.032,0,0,0,594,781.965v-23.59A2.032,2.032,0,0,0,591.976,756.34Zm-13.2-4.56h0.449a2.012,2.012,0,0,1,2,2.016v2.545h-0.987V753.8a1.021,1.021,0,0,0-1.018-1.023h-0.449V751.78h0Zm-8.413-.635h7.274V753.4h-7.274v-2.259h0Zm-1.075,2.773a0.974,0.974,0,0,0,.909.632H577.8a0.974,0.974,0,0,0,.909-0.632H579.1v2.422H568.9v-2.422h0.391Zm-2.518-.122a2.012,2.012,0,0,1,2-2.016h0.449v0.993h-0.449a1.021,1.021,0,0,0-1.018,1.023v2.545H566.77V753.8Zm-3.5,11.758H565.4V768.1h-2.127v-2.544Zm2.127,8.575a1.064,1.064,0,1,1-2.127,0v-1.474H565.4v1.474Zm1.33-3.5v0.879h-4.787v-2.265h4.787v1.386Zm15.866-5.076h2.127V768.1H582.6v-2.544Zm2.127,8.575a1.064,1.064,0,1,1-2.127,0v-1.474h2.127v1.474h0Zm1.33-3.5v0.879h-4.787v-2.265h4.787v1.386h0Z" transform="translate(-554 -750)"/>
</svg>
