<svg xmlns="http://www.w3.org/2000/svg" width="68" height="48" viewBox="0 0 68 48">
  <metadata><?xpacket begin="﻿" id="W5M0MpCehiHzreSzNTczkc9d"?>
<x:xmpmeta xmlns:x="adobe:ns:meta/" x:xmptk="Adobe XMP Core 5.6-c138 79.159824, 2016/09/14-01:09:01        ">
   <rdf:RDF xmlns:rdf="http://www.w3.org/1999/02/22-rdf-syntax-ns#">
      <rdf:Description rdf:about=""/>
   </rdf:RDF>
</x:xmpmeta>
<?xpacket end="w"?></metadata>
<defs>
    <style>
      .cls-1 {
        fill: #fff;
        fill-rule: evenodd;
      }
    </style>
  </defs>
  <path id="Фигура_37" data-name="Фигура 37" class="cls-1" d="M345.35,1353.12c-2.455-2.93-6.987-4.12-15.642-4.12H298.291c-8.853,0-13.461,1.27-15.907,4.39C280,1356.42,280,1360.9,280,1367.1v11.8c0,12.01,2.829,18.1,18.291,18.1h31.417c7.506,0,11.665-1.05,14.355-3.64,2.76-2.64,3.937-6.97,3.937-14.46v-11.8C348,1360.56,347.816,1356.06,345.35,1353.12Zm-21.694,21.51-14.266,7.48a2.154,2.154,0,0,1-1.016.25,2.2,2.2,0,0,1-2.194-2.2v-14.91a2.2,2.2,0,0,1,1.055-1.88,2.171,2.171,0,0,1,2.15-.07l14.266,7.43A2.2,2.2,0,0,1,323.656,1374.63Z" transform="translate(-280 -1349)"/>
</svg>
