<svg xmlns="http://www.w3.org/2000/svg" width="45" height="40" viewBox="0 0 45 40">
  <metadata><?xpacket begin="﻿" id="W5M0MpCehiHzreSzNTczkc9d"?>
<x:xmpmeta xmlns:x="adobe:ns:meta/" x:xmptk="Adobe XMP Core 5.6-c138 79.159824, 2016/09/14-01:09:01        ">
   <rdf:RDF xmlns:rdf="http://www.w3.org/1999/02/22-rdf-syntax-ns#">
      <rdf:Description rdf:about=""/>
   </rdf:RDF>
</x:xmpmeta>
                                                                                                    
                                                                                                    
                                                                                                    
                                                                                                    
                                                                                                    
                                                                                                    
                                                                                                    
                                                                                                    
                                                                                                    
                                                                                                    
                                                                                                    
                                                                                                    
                                                                                                    
                                                                                                    
                                                                                                    
                                                                                                    
                                                                                                    
                                                                                                    
                                                                                                    
                                                                                                    
                           
<?xpacket end="w"?></metadata>
<defs>
    <style>
      .cls-1 {
        fill: #80909c;
        fill-rule: evenodd;
      }
    </style>
  </defs>
  <path id="Иконка" class="cls-1" d="M977.533,1116.03h-2.467a0.67,0.67,0,0,0,0,1.34h2.467A0.67,0.67,0,0,0,977.533,1116.03Zm14.52-7.17-3.59-1.41-1.83-1.86a0.642,0.642,0,0,0-.424-0.19v-1.48a6.938,6.938,0,0,0,1.725-3.45,1.8,1.8,0,0,0,.462-0.04,1.973,1.973,0,0,0,1.514-1.96v-0.49a2.036,2.036,0,0,0-.581-1.43c0.583-3.21.1-5.84-1.392-7.59-1.447-1.7-3.777-2.51-6.74-2.35a8.737,8.737,0,0,0-5.063,1.9,3.527,3.527,0,0,0-1.356.47,3.582,3.582,0,0,0-1.605,3.32,17.025,17.025,0,0,0,.457,3.89,1.99,1.99,0,0,0-1.074,1.79v0.49a1.973,1.973,0,0,0,1.514,1.96,1.8,1.8,0,0,0,.462.04,6.938,6.938,0,0,0,1.725,3.45v1.48a0.642,0.642,0,0,0-.424.19l-1.83,1.86-3.59,1.41a4.245,4.245,0,0,0-.882.47,0.675,0.675,0,0,0-.174.93,0.652,0.652,0,0,0,.545.29,0.629,0.629,0,0,0,.37-0.11,3.494,3.494,0,0,1,.615-0.33l3.332-1.3,2.547,3.88a1.857,1.857,0,0,0,1.388.84,1.2,1.2,0,0,0,.189.01,1.781,1.781,0,0,0,.928-0.25l-0.547,12.6a0.663,0.663,0,0,0,.63.7h0.029a0.663,0.663,0,0,0,.658-0.64l0.508-11.69h1.368l0.508,11.69a0.663,0.663,0,0,0,.658.64h0.029a0.663,0.663,0,0,0,.63-0.7l-0.547-12.6a1.781,1.781,0,0,0,.928.25,1.191,1.191,0,0,0,.188-0.01,1.858,1.858,0,0,0,1.389-.84l2.547-3.88,3.332,1.3a3.047,3.047,0,0,1,1.185.84l-2.279,2.32a4.423,4.423,0,0,0-1.277,3.13v9.52a0.659,0.659,0,1,0,1.318,0v-9.52a3.112,3.112,0,0,1,.891-2.19l2-2.03a3.2,3.2,0,0,1,.105.94l-0.511,12.78a0.656,0.656,0,0,0,.632.69h0.027a0.661,0.661,0,0,0,.658-0.64l0.511-12.78A4.432,4.432,0,0,0,992.053,1108.86Zm-10.82.7-3.658-3.25v-1.28a6.735,6.735,0,0,0,7.316,0v1.28Zm-6.745-10.43a0.808,0.808,0,0,1-.154-0.01,0.655,0.655,0,0,1-.459-0.65v-0.49a0.62,0.62,0,0,1,.465-0.63,0.561,0.561,0,0,1,.564.22,0.912,0.912,0,0,0,1.263.2,4.858,4.858,0,0,0,1.081-1.08,0.668,0.668,0,0,0-.135-0.93,0.651,0.651,0,0,0-.923.14,4.052,4.052,0,0,1-.513.56,1.975,1.975,0,0,0-.715-0.39,15.635,15.635,0,0,1-.471-3.77,2.378,2.378,0,0,1,.925-2.15,2.087,2.087,0,0,1,.986-0.32,0.694,0.694,0,0,0,.455-0.18,7.3,7.3,0,0,1,4.411-1.7c2.541-.14,4.5.51,5.672,1.89s1.571,3.5,1.145,6.16a3.688,3.688,0,0,0-.562.04l-0.619-1.51a0.66,0.66,0,0,0-.776-0.39c-0.061.02-6.149,1.58-8.7-1.65a0.661,0.661,0,0,0-.927-0.1,0.676,0.676,0,0,0-.1.94c2.607,3.3,7.779,2.58,9.5,2.23l0.478,1.17a1.065,1.065,0,0,0,1.252.65,1.278,1.278,0,0,1,.494-0.03,0.624,0.624,0,0,1,.467.63v0.49a0.655,0.655,0,0,1-.459.65,0.808,0.808,0,0,1-.154.01,1.287,1.287,0,0,0-1.335,1.06,5.485,5.485,0,0,1-10.82,0A1.287,1.287,0,0,0,974.488,1099.13Zm3.8,13.07a0.569,0.569,0,0,1-.421-0.26l-2.566-3.91,1.032-1.05,3.94,3.51-1.522,1.54A0.564,0.564,0,0,1,978.284,1112.2Zm2.323,0.72,0.04-.92,0.586-.6,0.586,0.6,0.04,0.92h-1.252Zm4-.98a0.565,0.565,0,0,1-.884.09l-1.522-1.54,3.94-3.51,1.032,1.05Zm-13.856.43-3.219-1.43-1.76-1.78a0.654,0.654,0,0,0-.423-0.2v-1.05a6.934,6.934,0,0,0,2.958-4.51,1.532,1.532,0,0,0,.52-0.05,1.983,1.983,0,0,0,1.456-1.95v-0.49a2.014,2.014,0,0,0-.845-1.65,7.572,7.572,0,0,0,.228-1.85,7.819,7.819,0,0,0-3.7-6.62,4.361,4.361,0,0,0-8.717,0,7.82,7.82,0,0,0-3.7,6.62,7.742,7.742,0,0,0,.226,1.85,2.017,2.017,0,0,0-.843,1.66v0.48a1.982,1.982,0,0,0,1.456,1.95,1.532,1.532,0,0,0,.52.05,6.934,6.934,0,0,0,2.958,4.51v1.05a0.659,0.659,0,0,0-.424.2l-1.759,1.78-3.219,1.43a4.476,4.476,0,0,0-2.612,4.25l0.39,9.33a0.663,0.663,0,0,0,.658.64h0.028a0.662,0.662,0,0,0,.631-0.69l-0.389-9.34a3.09,3.09,0,0,1,.417-1.68l1.731,2.11a3.741,3.741,0,0,1,.848,2.37v6.56a0.659,0.659,0,1,0,1.318,0v-6.56a5.088,5.088,0,0,0-1.153-3.23l-1.84-2.25a3.955,3.955,0,0,1,.5-0.28l2.806-1.24,1.982,3.26a1.267,1.267,0,0,0,.888.61,1.327,1.327,0,0,0,.2.01,1.274,1.274,0,0,0,.828-0.31l1.256-1.09v11.08a0.659,0.659,0,1,0,1.318,0v-11.08l1.256,1.09a1.274,1.274,0,0,0,.828.31,1.327,1.327,0,0,0,.2-0.01,1.267,1.267,0,0,0,.888-0.61l1.982-3.26,2.806,1.24a4.026,4.026,0,0,1,.5.28l-1.839,2.25a5.083,5.083,0,0,0-1.154,3.23v6.56a0.659,0.659,0,1,0,1.318,0v-6.56a3.741,3.741,0,0,1,.848-2.37l1.731-2.11a3.09,3.09,0,0,1,.417,1.68l-0.389,9.34a0.662,0.662,0,0,0,.631.69h0.028a0.662,0.662,0,0,0,.658-0.64l0.39-9.33A4.476,4.476,0,0,0,970.747,1112.37Zm-9.145-24.44a3.028,3.028,0,0,1,2.936,2.14,8.252,8.252,0,0,0-5.872,0A3.027,3.027,0,0,1,961.6,1087.93Zm-5.41,15.2a1.3,1.3,0,0,0-1.335-1.07,0.5,0.5,0,0,1-.172-0.01,0.653,0.653,0,0,1-.441-0.65v-0.48a0.64,0.64,0,0,1,.465-0.64,0.581,0.581,0,0,1,.564.22,0.883,0.883,0,0,0,.467.33,0.873,0.873,0,0,0,.8-0.13,4.743,4.743,0,0,0,1.067-1.05,0.678,0.678,0,0,0-.131-0.94,0.659,0.659,0,0,0-.923.13,3.119,3.119,0,0,1-.5.55,1.935,1.935,0,0,0-1-.44,6.38,6.38,0,0,1-.191-1.54,6.745,6.745,0,0,1,13.484,0,6.429,6.429,0,0,1-.19,1.54,2.9,2.9,0,0,0-.514.08l-0.5-.41a1.3,1.3,0,0,0-.88-0.3c-0.969.06-5.931,0.2-8.477-2.9a0.653,0.653,0,0,0-.929-0.08,0.673,0.673,0,0,0-.083.94,9.375,9.375,0,0,0,5.474,3.07,15.657,15.657,0,0,0,4.071.31l0.773,0.65a0.647,0.647,0,0,0,.749.06,1.508,1.508,0,0,1,.65-0.09,0.64,0.64,0,0,1,.467.63v0.49a0.653,0.653,0,0,1-.441.65,0.5,0.5,0,0,1-.172.01,1.3,1.3,0,0,0-1.335,1.07A5.485,5.485,0,0,1,956.192,1103.13Zm5.41,5.92a6.556,6.556,0,0,0,2.424-.46v1.39l-2.424,2.46-2.425-2.46v-1.39A6.565,6.565,0,0,0,961.6,1109.05Zm-2.733,5.83-1.983-3.27,1.015-1.03,2.73,2.77Zm5.466,0-1.762-1.53,2.729-2.77,1.016,1.03Zm-5.2,4.11h-1.85a0.67,0.67,0,0,0,0,1.34h1.85A0.67,0.67,0,0,0,959.135,1118.99Z" transform="translate(-949.844 -1086.59)"/>
</svg>
