<svg xmlns="http://www.w3.org/2000/svg" width="39" height="40" viewBox="0 0 39 40">
  <metadata><?xpacket begin="﻿" id="W5M0MpCehiHzreSzNTczkc9d"?>
<x:xmpmeta xmlns:x="adobe:ns:meta/" x:xmptk="Adobe XMP Core 5.6-c138 79.159824, 2016/09/14-01:09:01        ">
   <rdf:RDF xmlns:rdf="http://www.w3.org/1999/02/22-rdf-syntax-ns#">
      <rdf:Description rdf:about=""/>
   </rdf:RDF>
</x:xmpmeta>
                                                                                                    
                                                                                                    
                                                                                                    
                                                                                                    
                                                                                                    
                                                                                                    
                                                                                                    
                                                                                                    
                                                                                                    
                                                                                                    
                                                                                                    
                                                                                                    
                                                                                                    
                                                                                                    
                                                                                                    
                                                                                                    
                                                                                                    
                                                                                                    
                                                                                                    
                                                                                                    
                           
<?xpacket end="w"?></metadata>
<defs>
    <style>
      .cls-1 {
        fill: #629fd1;
        fill-rule: evenodd;
      }
    </style>
  </defs>
  <path id="Иконка" class="cls-1" d="M339.762,1925.51a6.306,6.306,0,0,0-3.52-2.47c-0.017,0-.034-0.01-0.052-0.01l-6.048-1.09-2.034-2.59a12.174,12.174,0,0,0,3.137-8.13v-6.73l2.671-.88v6.51a1.84,1.84,0,0,0-1.3,1.74v2.23a0.6,0.6,0,0,0,.611.59h2.6a0.6,0.6,0,0,0,.61-0.59v-2.23a1.84,1.84,0,0,0-1.3-1.74v-6.91l1.493-.5a1.561,1.561,0,0,0,0-2.99l-13.249-4.37a7.123,7.123,0,0,0-4.426,0l-13.25,4.37a1.561,1.561,0,0,0,0,2.99l6.044,2v6.51a12.2,12.2,0,0,0,3.145,8.13l-2.037,2.59-6.048,1.09c-0.017,0-.035.01-0.052,0.01a6.306,6.306,0,0,0-3.52,2.47,6.678,6.678,0,0,0-1.238,3.82v3.44a2.417,2.417,0,0,0,2.565,2.23h33.87a2.417,2.417,0,0,0,2.565-2.23v-3.44a6.678,6.678,0,0,0-1.238-3.82h0Zm-4.543-12h-1.384v-1.65a0.693,0.693,0,0,1,1.384,0v1.65Zm2.38,11.48-1.977,1.9a5.455,5.455,0,0,0-1.706,3.96v2.97h-9.31l-0.227-1.08v-0.01l-0.933-4.48a1.8,1.8,0,0,0,.32-0.37l0.609,0.73c0.014,0.01.029,0.03,0.044,0.04a1.284,1.284,0,0,0,.891.36,0.5,0.5,0,0,0,.121-0.01,1.248,1.248,0,0,0,.925-0.52l3.762-5.34,5.82,1.04a4.829,4.829,0,0,1,1.661.81h0Zm-15.195,8.83-2.3-2.21,0.255-1.23,2.862,2.76,0.143,0.68H322.4Zm-2.253-14.48h2.7a10.516,10.516,0,0,1-1.349,5.3,10.527,10.527,0,0,1-1.349-5.3h0Zm0.882,6.68a0.624,0.624,0,0,0,.934,0c0.042-.05.082-0.09,0.122-0.14l0.765,0.91a0.516,0.516,0,0,0-.01.11,0.681,0.681,0,0,1-.693.66h-1.3a0.681,0.681,0,0,1-.693-0.66,0.516,0.516,0,0,0-.01-0.11l0.765-.91c0.04,0.05.081,0.09,0.122,0.14h0Zm-0.184,2.72h1.3c0.05,0,.1-0.01.15-0.01l0.484,2.33-2.142-2.06,0.056-.27c0.049,0,.1.01,0.15,0.01h0Zm-1.036,4.25,0.864,0.83H319.64Zm5.532-5.17a0.063,0.063,0,0,1-.03.01c-0.009.01-.016,0-0.021,0l-2.5-2.99a9.668,9.668,0,0,0,.981-2.7,9.158,9.158,0,0,0,3.47-1.94l1.828,2.33Zm0.063-19.68a3.236,3.236,0,0,0-2.809,1.59,2,2,0,0,0-2.2,0,3.271,3.271,0,0,0-5.767.29h-1.663v-1.14a0.6,0.6,0,0,0,.021-0.15c0-.17.4-0.71,2.228-1.21a28.129,28.129,0,0,1,12.56,0c1.828,0.5,2.228,1.04,2.228,1.21a0.578,0.578,0,0,0,.016.13v1.16h-1.658a3.233,3.233,0,0,0-2.958-1.88h0Zm2,3.1a2,2,0,1,1-2-1.92,1.958,1.958,0,0,1,2,1.92h0Zm-9.811-1.92a1.917,1.917,0,1,1-2,1.92,1.96,1.96,0,0,1,2-1.92h0Zm-4.621-2.95a0.488,0.488,0,0,0,.021-0.15c0-.16.4-0.7,2.228-1.2a28.129,28.129,0,0,1,12.56,0c1.828,0.5,2.228,1.04,2.228,1.2a0.514,0.514,0,0,0,.016.13v0.78a9.078,9.078,0,0,0-1.908-.74,29.556,29.556,0,0,0-13.232,0,9.067,9.067,0,0,0-1.913.74v-0.76Zm17.053-2.42a0.544,0.544,0,0,0,0,.26v0.42a8.1,8.1,0,0,0-1.908-.74,29.177,29.177,0,0,0-13.232,0,8.1,8.1,0,0,0-1.913.74v-0.18a0.537,0.537,0,0,0,0-.31v-2.15a0.6,0.6,0,0,0,.021-0.15c0-.17.4-0.71,2.228-1.21a28.129,28.129,0,0,1,12.56,0c1.828,0.5,2.228,1.04,2.228,1.21a0.578,0.578,0,0,0,.016.13v1.98ZM306.1,1901.6a0.38,0.38,0,0,1-.286-0.38,0.4,0.4,0,0,1,.287-0.39l13.249-4.37a5.935,5.935,0,0,1,3.634,0l13.249,4.37a0.4,0.4,0,0,1,.287.39,0.38,0.38,0,0,1-.287.38l-4.99,1.65v-1.41a0.541,0.541,0,0,0-.026-0.17c-0.116-.9-1.159-1.63-3.1-2.17a29.556,29.556,0,0,0-13.232,0c-1.928.53-2.969,1.25-3.1,2.15a0.535,0.535,0,0,0-.035.19v1.63Zm6.869,9.6h1.406c0,0.01,0,.02,0,0.04a3.219,3.219,0,0,0,6.432,0,0.692,0.692,0,0,1,1.384,0,3.219,3.219,0,0,0,6.432,0c0-.02,0-0.03,0-0.04h1.4v0.02a11.12,11.12,0,0,1-1.957,6.25,9.048,9.048,0,0,1-4.082,3.36,13,13,0,0,0,.075-2.11,0.6,0.6,0,0,0-.61-0.55h-3.9a0.6,0.6,0,0,0-.61.55,12.883,12.883,0,0,0,.075,2.1,9.066,9.066,0,0,1-4.085-3.36,11.107,11.107,0,0,1-1.959-6.24v-0.02Zm2.79,9a9.426,9.426,0,0,0,3.466,1.94,9.786,9.786,0,0,0,.982,2.7l-2.5,2.99s-0.012.01-.021,0a0.059,0.059,0,0,1-.03-0.01l-3.725-5.29Zm-8.7,3.98,5.82-1.04,3.762,5.34a1.248,1.248,0,0,0,.925.52,0.5,0.5,0,0,0,.121.01,1.284,1.284,0,0,0,.891-0.36c0.016-.01.03-0.03,0.044-0.04l0.609-.73a1.8,1.8,0,0,0,.32.37l-1.16,5.57h-9.311v-2.97a5.47,5.47,0,0,0-1.705-3.96l-1.977-1.9a4.829,4.829,0,0,1,1.661-.81h0Zm-3.841,8.59v-3.44a5.61,5.61,0,0,1,1.309-3.52l1.985,1.91a4.325,4.325,0,0,1,1.347,3.13v2.97h-3.3a1.225,1.225,0,0,1-1.344-1.05h0Zm36.558,0a1.225,1.225,0,0,1-1.344,1.05h-3.3v-2.97a4.325,4.325,0,0,1,1.347-3.13l1.985-1.91a5.61,5.61,0,0,1,1.309,3.52v3.44Zm0,0-21.054-15.72a3.719,3.719,0,0,0,1.075-.23,1.559,1.559,0,0,1,1.346-.1,0.011,0.011,0,0,0,.012.01,0.059,0.059,0,0,0,.033.02,0.023,0.023,0,0,0,.022.01c0.01,0.01.02,0.01,0.03,0.02s0.018,0.01.027,0.01,0.018,0.01.027,0.01,0.021,0.01.031,0.01a0.026,0.026,0,0,1,.024.01h0.034c0.008,0,.016.01,0.024,0.01h0.181c0.007,0,.015-0.01.023-0.01h0.035a0.023,0.023,0,0,1,.022-0.01c0.011,0,.022-0.01.033-0.01s0.017-.01.025-0.01,0.019-.01.029-0.01,0.019-.01.028-0.02a0.024,0.024,0,0,0,.023-0.01,0.059,0.059,0,0,0,.033-0.02,0.011,0.011,0,0,0,.012-0.01,1.559,1.559,0,0,1,1.346.1,3.726,3.726,0,0,0,1.075.23,1.2,1.2,0,0,0,.956-0.43,0.578,0.578,0,0,0-.091-0.83,0.64,0.64,0,0,0-.856.08,2.526,2.526,0,0,1-.69-0.16,16.93,16.93,0,0,0-4.188,0,2.518,2.518,0,0,1-.69.16,0.632,0.632,0,0,0-.858-0.08,0.578,0.578,0,0,0-.089.83,1.2,1.2,0,0,0,.956.43h0Zm0,0-1.133-4.6a1.243,1.243,0,0,0,1.262-1.21,0.611,0.611,0,0,0-1.222,0,0.034,0.034,0,0,1-.04.03,0.6,0.6,0,0,0-.611.59,0.6,0.6,0,0,0,.611.59h0Zm0,0,7.206-.59a0.6,0.6,0,0,0,.61.59,1.243,1.243,0,0,0,1.262-1.21,0.611,0.611,0,0,0-1.221,0,0.035,0.035,0,0,1-.041.03,0.6,0.6,0,0,0-.61.59h0Zm0,0" transform="translate(-302 -1895)"/>
</svg>
