<svg xmlns="http://www.w3.org/2000/svg" width="13.094" height="8.68" viewBox="0 0 13.094 8.68">
  <metadata><?xpacket begin="﻿" id="W5M0MpCehiHzreSzNTczkc9d"?>
<x:xmpmeta xmlns:x="adobe:ns:meta/" x:xmptk="Adobe XMP Core 5.6-c138 79.159824, 2016/09/14-01:09:01        ">
   <rdf:RDF xmlns:rdf="http://www.w3.org/1999/02/22-rdf-syntax-ns#">
      <rdf:Description rdf:about=""/>
   </rdf:RDF>
</x:xmpmeta>
                                                                                                    
                                                                                                    
                                                                                                    
                                                                                                    
                                                                                                    
                                                                                                    
                                                                                                    
                                                                                                    
                                                                                                    
                                                                                                    
                                                                                                    
                                                                                                    
                                                                                                    
                                                                                                    
                                                                                                    
                                                                                                    
                                                                                                    
                                                                                                    
                                                                                                    
                                                                                                    
                           
<?xpacket end="w"?></metadata>
<defs>
    <style>
      .cls-1 {
        fill: #fff;
        fill-rule: evenodd;
      }
    </style>
  </defs>
  <path id="Фигура_36" data-name="Фигура 36" class="cls-1" d="M682.739,2719.52a1.608,1.608,0,0,0,1.427-.81,2.5,2.5,0,0,1-1.544.16c-0.023-.1-0.048-0.2-0.072-0.29a2.794,2.794,0,0,0-2.778-2.08c0.1-.04.2-0.08,0.3-0.11,0.138-.05.941-0.18,0.814-0.45-0.106-.24-1.088.18-1.272,0.24a0.978,0.978,0,0,0,.69-0.51,2.034,2.034,0,0,0-1.024.46,0.635,0.635,0,0,0,.2-0.37,5.991,5.991,0,0,0-2.05,3.04,5.46,5.46,0,0,0-.992-0.77,28.535,28.535,0,0,0-3.362-1.42,1.712,1.712,0,0,0,1.121,1.59,2.446,2.446,0,0,0-.807.09,1.615,1.615,0,0,0,1.468,1.25,1.244,1.244,0,0,0-.9.34,1.549,1.549,0,0,0,1.614.76c-1.006.42-.41,1.18,0.408,1.07a3.58,3.58,0,0,1-4.86.12c3.3,4.32,10.471,2.56,11.54-1.6a2.019,2.019,0,0,0,1.563-.57,3.276,3.276,0,0,1-1.485-.14h0Z" transform="translate(-671.125 -2715.66)"/>
</svg>
