<svg xmlns="http://www.w3.org/2000/svg" width="40" height="40" viewBox="0 0 40 40">
  <metadata><?xpacket begin="﻿" id="W5M0MpCehiHzreSzNTczkc9d"?>
<x:xmpmeta xmlns:x="adobe:ns:meta/" x:xmptk="Adobe XMP Core 5.6-c138 79.159824, 2016/09/14-01:09:01        ">
   <rdf:RDF xmlns:rdf="http://www.w3.org/1999/02/22-rdf-syntax-ns#">
      <rdf:Description rdf:about=""/>
   </rdf:RDF>
</x:xmpmeta>
                                                                                                    
                                                                                                    
                                                                                                    
                                                                                                    
                                                                                                    
                                                                                                    
                                                                                                    
                                                                                                    
                                                                                                    
                                                                                                    
                                                                                                    
                                                                                                    
                                                                                                    
                                                                                                    
                                                                                                    
                                                                                                    
                                                                                                    
                                                                                                    
                                                                                                    
                                                                                                    
                           
<?xpacket end="w"?></metadata>
<defs>
    <style>
      .cls-1 {
        fill: #80909c;
        fill-rule: evenodd;
      }
    </style>
  </defs>
  <path id="Иконка" class="cls-1" d="M969.8,779.887L967.657,779a0.566,0.566,0,0,0-.088-0.029l-1.294-.327v-0.771a9.641,9.641,0,0,1,2.338.669,0.628,0.628,0,0,0,.785-0.228,0.493,0.493,0,0,0,.042-0.049,9.609,9.609,0,0,0,1.933-5.872c0-4.824-3.355-8.748-7.48-8.748s-7.479,3.924-7.479,8.748a9.579,9.579,0,0,0,2.008,5.968,0.142,0.142,0,0,1,.012.013l0.017,0.019c0.015,0.016.03,0.031,0.046,0.045l0.014,0.013a0.636,0.636,0,0,0,.223.12l0.012,0a0.62,0.62,0,0,0,.072.016l0.012,0a0.618,0.618,0,0,0,.085.006h0.012a0.474,0.474,0,0,0,.075-0.006l0.03,0a0.551,0.551,0,0,0,.08-0.02l0.028-.011,0.034-.013a9.627,9.627,0,0,1,2.331-.668v0.764l-1.38.331a0.658,0.658,0,0,0-.1.031l-2.139.892A4.631,4.631,0,0,0,955,784.341v3.026a0.632,0.632,0,0,0,.631.633h16.425a0.637,0.637,0,0,0,.631-0.638v-3.021A4.63,4.63,0,0,0,969.8,779.887Zm-6.84,6.849-1.316-4.7a6.716,6.716,0,0,0,2.268.4,6.448,6.448,0,0,0,2.242-.407l-1.317,4.707h-1.877Zm-3.964-13.927a0.78,0.78,0,0,1,.342-0.646v1.292A0.783,0.783,0,0,1,958.991,772.809Zm1.6,1.25V771.5a10.324,10.324,0,0,0,3.261-1.785,7.574,7.574,0,0,0,3.338,1.82v2.523a2.92,2.92,0,0,1-2.915,2.919h-0.769A2.92,2.92,0,0,1,960.594,774.059Zm8.2-1.25a0.777,0.777,0,0,1-.342.645v-1.291A0.779,0.779,0,0,1,968.8,772.809Zm-4.9-7.906c3.428,0,6.218,3.358,6.218,7.485a8.42,8.42,0,0,1-1.453,4.8,10.593,10.593,0,0,0-1.241-.38,4.181,4.181,0,0,0,.966-1.993,2.044,2.044,0,0,0,.026-4.016,0.633,0.633,0,0,0-.461-0.387,5.928,5.928,0,0,1-3.542-1.963,0.629,0.629,0,0,0-.965-0.075,9,9,0,0,1-3.637,2.046,0.627,0.627,0,0,0-.426.378,2.045,2.045,0,0,0,.024,4.017,4.181,4.181,0,0,0,.966,1.993,10.771,10.771,0,0,0-1.24.379,8.4,8.4,0,0,1-1.454-4.8C957.675,768.261,960.465,764.9,963.894,764.9Zm-1.611,14.843a0.633,0.633,0,0,0,.484-0.615v-0.957a4.222,4.222,0,0,0,.742.067h0.769a4.154,4.154,0,0,0,.736-0.066v0.956a0.631,0.631,0,0,0,.476.613l1.212,0.306-0.106.382a5.376,5.376,0,0,1-5.4.012l-0.115-.41Zm-3.121,6.99V784.2a0.631,0.631,0,1,0-1.261,0v2.532h-1.64v-2.395a3.341,3.341,0,0,1,2.055-3.264l0.041-.016,1.523-.635,0.164,0.586a0,0,0,0,0,0,0l1.6,5.721h-2.483Zm12.264,0h-1.64V784.2a0.631,0.631,0,1,0-1.262,0v2.532h-2.382l1.755-6.273,1.432,0.6,0.038,0.015a3.34,3.34,0,0,1,2.059,3.265v2.395Zm-6.23-29.029h2.843v2.937a0.63,0.63,0,0,0,.41.591,0.629,0.629,0,0,0,.7-0.178l1.323-1.528a0.63,0.63,0,0,0,.6.426H977.9l2.9,3.351a0.63,0.63,0,0,0,.477.218,0.647,0.647,0,0,0,.22-0.04,0.632,0.632,0,0,0,.41-0.592v-2.937h2.843a0.63,0.63,0,0,0,.631-0.631v-8.445a0.631,0.631,0,0,0-.631-0.631h-5.239v-1.617a0.63,0.63,0,0,0-.63-0.631H965.2a0.63,0.63,0,0,0-.631.631v8.445A0.631,0.631,0,0,0,965.2,757.707Zm0.63-8.444h12.42v0.985h-1.092a0.632,0.632,0,0,0,0,1.263h6.961v7.181h-2.843a0.631,0.631,0,0,0-.63.632V761.2l-1.981-2.289a0.632,0.632,0,0,0-.476-0.218H971.7v-7.181h3.356a0.632,0.632,0,0,0,0-1.263h-3.987a0.632,0.632,0,0,0-.631.631v6.761l-1.134,1.31v-1.875a0.631,0.631,0,0,0-.631-0.631h-2.843v-7.181h0Zm26.283,30.582L990,778.967l-1.415-.935v-0.347a4.194,4.194,0,0,0,2.1-2.91,2.043,2.043,0,0,0,1.149-3.377v-1.991a5.453,5.453,0,0,0-5.443-5.451H986a5.453,5.453,0,0,0-5.443,5.451v2a2.043,2.043,0,0,0,1.157,3.368,4.193,4.193,0,0,0,2.106,2.91v0.309l-1.421.939a0.514,0.514,0,0,0-.055.02l-2.139.892a4.631,4.631,0,0,0-2.891,4.454v3.026a0.632,0.632,0,0,0,.631.633h4.141a0.632,0.632,0,0,0,0-1.263h-0.61v-2.534a0.631,0.631,0,1,0-1.261,0V786.7h-1.64v-2.4a3.34,3.34,0,0,1,2.055-3.264l0.041-.016,1.523-.635,1.77,6.327a0.631,0.631,0,0,0,.14,1.247h10.266A0.636,0.636,0,0,0,995,787.32V784.3A4.631,4.631,0,0,0,992.109,779.845Zm-7.029-1.5h0v-0.21a4.188,4.188,0,0,0,.739.067h0.769a4.188,4.188,0,0,0,.739-0.067v0.8l-1.147,1.193-1.1-1.074v-0.709h0Zm2.834,4.758a0.647,0.647,0,0,0,.209.1l-0.338,1.207-0.172-1.072,0.134-.358Zm-3.478,0,0.193-.143,0.163,0.389-0.168,1.046-0.339-1.212A0.625,0.625,0,0,0,984.436,783.1Zm1.427-.463-0.188-.45,0.5-.369,0.516,0.38-0.164.439h-0.664Zm2.189-1-0.215-.159h0l-0.7-.518,1.28-1.33a0.6,0.6,0,0,0,.1-0.132l0.442,0.292Zm2.712-8.222v-1.292A0.781,0.781,0,0,1,990.764,773.41ZM986,765.219h0.4a4.189,4.189,0,0,1,4.181,4.187v1.14l-0.015-.014a0.273,0.273,0,0,0-.025-0.023l-0.021-.017-0.027-.02-0.024-.015-0.027-.017-0.029-.015-0.025-.012-0.035-.014-0.023-.008a0.262,0.262,0,0,0-.04-0.011l-0.016,0a2.812,2.812,0,0,1-1.723-2.012,0.631,0.631,0,0,0-1.126-.231c-1.593,2.205-5.1,2.227-5.149,2.227h0c-0.022,0-.044,0-0.065,0l-0.019,0-0.043.007-0.027.007-0.034.008-0.03.011-0.027.01-0.034.017-0.021.01-0.033.02-0.019.011-0.03.022-0.019.015a0.273,0.273,0,0,0-.025.023l-0.02.017-0.011.012v-1.149A4.19,4.19,0,0,1,986,765.219Zm-4.7,7.545a0.783,0.783,0,0,1,.342-0.646v1.292A0.78,0.78,0,0,1,981.3,772.764Zm1.6,1.251v-2.426a8.41,8.41,0,0,0,4.814-1.9,3.65,3.65,0,0,0,1.785,1.759v2.567a2.921,2.921,0,0,1-2.915,2.919h-0.769A2.921,2.921,0,0,1,982.9,774.015Zm0.94,5.477a0.63,0.63,0,0,0,.165.277l1.213,1.183-0.923.68-0.9-1.848Zm1.686,7.2,0.451-2.795h0.445l0.451,2.795H985.53Zm8.209,0H992.1v-2.533a0.631,0.631,0,1,0-1.261,0v2.533h-2.383l1.755-6.273,1.432,0.6,0.038,0.015a3.34,3.34,0,0,1,2.059,3.265v2.395Z" transform="translate(-955 -748)"/>
</svg>
