<svg xmlns="http://www.w3.org/2000/svg" width="40" height="40" viewBox="0 0 40 40">
  <metadata><?xpacket begin="﻿" id="W5M0MpCehiHzreSzNTczkc9d"?>
<x:xmpmeta xmlns:x="adobe:ns:meta/" x:xmptk="Adobe XMP Core 5.6-c138 79.159824, 2016/09/14-01:09:01        ">
   <rdf:RDF xmlns:rdf="http://www.w3.org/1999/02/22-rdf-syntax-ns#">
      <rdf:Description rdf:about=""/>
   </rdf:RDF>
</x:xmpmeta>
                                                                                                    
                                                                                                    
                                                                                                    
                                                                                                    
                                                                                                    
                                                                                                    
                                                                                                    
                                                                                                    
                                                                                                    
                                                                                                    
                                                                                                    
                                                                                                    
                                                                                                    
                                                                                                    
                                                                                                    
                                                                                                    
                                                                                                    
                                                                                                    
                                                                                                    
                                                                                                    
                           
<?xpacket end="w"?></metadata>
<defs>
    <style>
      .cls-1 {
        fill: #80909c;
        fill-rule: evenodd;
      }
    </style>
  </defs>
  <path id="Иконка" class="cls-1" d="M989.5,913.485A18.622,18.622,0,0,0,976.252,908a0.666,0.666,0,0,0-.456.139,0.59,0.59,0,0,0-.209.449v18.145a0.587,0.587,0,0,0,.587.588h18.238a0.593,0.593,0,0,0,.587-0.588A18.648,18.648,0,0,0,989.5,913.485Zm-12.739,12.661V909.182a17.608,17.608,0,0,1,17.054,16.964H976.761Zm15.146,2.48H974.256V911.068a0.593,0.593,0,0,0-.589-0.587,18.688,18.688,0,0,0-13.5,5.821,0.587,0.587,0,0,0,.851.81,17.406,17.406,0,0,1,12.059-5.444v17.546a0.587,0.587,0,0,0,.587.587h17.643a17.6,17.6,0,0,1-17.565,17.024h-0.076a17.614,17.614,0,0,1-17.5-17.587v-0.022a17.514,17.514,0,0,1,2.915-9.677,0.587,0.587,0,0,0-.979-0.649A18.7,18.7,0,0,0,955,929.215v0.025A18.753,18.753,0,0,0,973.667,948h0.08A18.754,18.754,0,0,0,992.5,929.24,0.6,0.6,0,0,0,991.907,928.626Zm-3.968-12.961a0.587,0.587,0,0,0-.83,0l-7.515,7.52a0.587,0.587,0,1,0,.831.83l7.514-7.519A0.588,0.588,0,0,0,987.939,915.665Zm-1.041,4.841a1.841,1.841,0,1,0,1.839,1.841A1.842,1.842,0,0,0,986.9,920.506Zm0,2.506a0.666,0.666,0,1,1,.665-0.665A0.666,0.666,0,0,1,986.9,923.012Zm-4.423-5.678a1.84,1.84,0,1,0-1.839,1.84A1.842,1.842,0,0,0,982.475,917.334Zm-2.5,0a0.666,0.666,0,1,1,.666.666A0.667,0.667,0,0,1,979.97,917.334Zm-14.05,7.872h-0.627a1.293,1.293,0,0,1,0-2.585h2.5a0.588,0.588,0,0,0,0-1.175h-1.291V920.78a0.587,0.587,0,0,0-1.174,0v0.666h-0.04a2.468,2.468,0,0,0,0,4.935h0.627a1.293,1.293,0,0,1,0,2.585h-2.5a0.588,0.588,0,0,0,0,1.175h1.918v0.665a0.587,0.587,0,1,0,1.174,0v-0.737A2.467,2.467,0,0,0,965.92,925.206ZM976.3,938.365H975.67a1.293,1.293,0,0,1,0-2.585h2.5a0.587,0.587,0,1,0,0-1.174h-1.291v-0.667a0.587,0.587,0,1,0-1.174,0v0.667h-0.04a2.467,2.467,0,0,0,0,4.934H976.3a1.293,1.293,0,0,1,0,2.585h-2.5a0.588,0.588,0,0,0,0,1.175h1.918v0.666a0.587,0.587,0,0,0,1.174,0v-0.737A2.468,2.468,0,0,0,976.3,938.365Z" transform="translate(-955 -908)"/>
</svg>
