<svg xmlns="http://www.w3.org/2000/svg" width="13" height="20.031" viewBox="0 0 13 20.031">
  <metadata><?xpacket begin="﻿" id="W5M0MpCehiHzreSzNTczkc9d"?>
<x:xmpmeta xmlns:x="adobe:ns:meta/" x:xmptk="Adobe XMP Core 5.6-c138 79.159824, 2016/09/14-01:09:01        ">
   <rdf:RDF xmlns:rdf="http://www.w3.org/1999/02/22-rdf-syntax-ns#">
      <rdf:Description rdf:about=""/>
   </rdf:RDF>
</x:xmpmeta>
                                                                                                    
                                                                                                    
                                                                                                    
                                                                                                    
                                                                                                    
                                                                                                    
                                                                                                    
                                                                                                    
                                                                                                    
                                                                                                    
                                                                                                    
                                                                                                    
                                                                                                    
                                                                                                    
                                                                                                    
                                                                                                    
                                                                                                    
                                                                                                    
                                                                                                    
                                                                                                    
                           
<?xpacket end="w"?></metadata>
<defs>
    <style>
      .cls-1 {
        fill: #a2c527;
        fill-rule: evenodd;
      }
    </style>
  </defs>
  <path id="Icon" class="cls-1" d="M763.605,33.44V37.2H754.2a1.183,1.183,0,0,0-1.2,1.167V51.7a1.183,1.183,0,0,0,1.2,1.168h10.6A1.183,1.183,0,0,0,766,51.7V33.44a0.591,0.591,0,0,0-.6-0.584h-1.2a0.591,0.591,0,0,0-.6.584h0Zm-0.6,17.089h-7.012a0.591,0.591,0,0,1-.6-0.584V40.116a0.591,0.591,0,0,1,.6-0.583h7.012a0.591,0.591,0,0,1,.6.583v9.829A0.591,0.591,0,0,1,763.006,50.529ZM761.3,41.1H757.7a0.576,0.576,0,0,0-.56.588V42.86a0.576,0.576,0,0,0,.56.589H761.3a0.575,0.575,0,0,0,.56-0.589V41.683A0.575,0.575,0,0,0,761.3,41.1Z" transform="translate(-753 -32.844)"/>
</svg>
