<svg xmlns="http://www.w3.org/2000/svg" width="12.406" height="7.31" viewBox="0 0 12.406 7.31">
  <metadata><?xpacket begin="﻿" id="W5M0MpCehiHzreSzNTczkc9d"?>
<x:xmpmeta xmlns:x="adobe:ns:meta/" x:xmptk="Adobe XMP Core 5.6-c138 79.159824, 2016/09/14-01:09:01        ">
   <rdf:RDF xmlns:rdf="http://www.w3.org/1999/02/22-rdf-syntax-ns#">
      <rdf:Description rdf:about=""/>
   </rdf:RDF>
</x:xmpmeta>
                                                                                                    
                                                                                                    
                                                                                                    
                                                                                                    
                                                                                                    
                                                                                                    
                                                                                                    
                                                                                                    
                                                                                                    
                                                                                                    
                                                                                                    
                                                                                                    
                                                                                                    
                                                                                                    
                                                                                                    
                                                                                                    
                                                                                                    
                                                                                                    
                                                                                                    
                                                                                                    
                           
<?xpacket end="w"?></metadata>
<defs>
    <style>
      .cls-1 {
        fill: #fff;
        fill-rule: evenodd;
      }
    </style>
  </defs>
  <path id="Иконка" class="cls-1" d="M578.951,2724.23H579.7a0.627,0.627,0,0,0,.339-0.16,0.546,0.546,0,0,0,.1-0.33,1.411,1.411,0,0,1,.448-1.17c0.457-.15,1.044.98,1.665,1.42a1.169,1.169,0,0,0,.827.26l1.663-.02s0.869-.06.457-0.76a5.524,5.524,0,0,0-1.236-1.46c-1.042-.99-0.9-0.83.353-2.54,0.765-1.04,1.07-1.67.975-1.95a0.713,0.713,0,0,0-.654-0.19l-1.871.01a0.386,0.386,0,0,0-.242.05,0.516,0.516,0,0,0-.165.2,10.943,10.943,0,0,1-.692,1.49c-0.833,1.45-1.166,1.53-1.3,1.44a1.666,1.666,0,0,1-.238-1.29c0-1.4.208-1.99-.4-2.14a3.319,3.319,0,0,0-.874-0.09,3.909,3.909,0,0,0-1.553.16c-0.213.11-.377,0.35-0.277,0.36a0.845,0.845,0,0,1,.553.29,1.858,1.858,0,0,1,.185.86s0.11,1.65-.258,1.85c-0.252.15-.6-0.14-1.341-1.45a12.808,12.808,0,0,1-.668-1.42,0.544,0.544,0,0,0-.154-0.21,0.78,0.78,0,0,0-.288-0.12l-1.778.01a0.6,0.6,0,0,0-.365.13,0.393,0.393,0,0,0-.007.32,20.835,20.835,0,0,0,2.968,5.01A4.225,4.225,0,0,0,578.951,2724.23Z" transform="translate(-572.875 -2717)"/>
</svg>
