<svg xmlns="http://www.w3.org/2000/svg" width="38" height="40" viewBox="0 0 38 40">
  <metadata><?xpacket begin="﻿" id="W5M0MpCehiHzreSzNTczkc9d"?>
<x:xmpmeta xmlns:x="adobe:ns:meta/" x:xmptk="Adobe XMP Core 5.6-c138 79.159824, 2016/09/14-01:09:01        ">
   <rdf:RDF xmlns:rdf="http://www.w3.org/1999/02/22-rdf-syntax-ns#">
      <rdf:Description rdf:about=""/>
   </rdf:RDF>
</x:xmpmeta>
                                                                                                    
                                                                                                    
                                                                                                    
                                                                                                    
                                                                                                    
                                                                                                    
                                                                                                    
                                                                                                    
                                                                                                    
                                                                                                    
                                                                                                    
                                                                                                    
                                                                                                    
                                                                                                    
                                                                                                    
                                                                                                    
                                                                                                    
                                                                                                    
                                                                                                    
                                                                                                    
                           
<?xpacket end="w"?></metadata>
<defs>
    <style>
      .cls-1 {
        fill: #80909c;
        fill-rule: evenodd;
      }
    </style>
  </defs>
  <path id="Иконка" class="cls-1" d="M592.743,1105.18h-0.587v-5.39h0a2.539,2.539,0,0,0-1.053-2.07h0v-0.74a1.917,1.917,0,0,0-1.894-1.93h-0.438l1.677-2.51a1.865,1.865,0,0,0-.476-2.56l-11.38-7.91a1.77,1.77,0,0,0-1.357-.29,1.791,1.791,0,0,0-1.159.78l-9.822,14.69h-2.733l0.659-6.8a0.192,0.192,0,0,1,.125-0.17,4.3,4.3,0,0,0,2.073-1.72,0.2,0.2,0,0,1,.186-0.09l4.287,0.43a0.557,0.557,0,0,0,.611-0.51,0.566,0.566,0,0,0-.5-0.62l-4.287-.43a1.292,1.292,0,0,0-1.239.61,3.155,3.155,0,0,1-1.524,1.26,1.326,1.326,0,0,0-.843,1.13l-0.67,6.91h-0.713l1.043-10.76a0.706,0.706,0,0,1,.757-0.64l8.663,0.88a0.573,0.573,0,0,0,.11-1.14l-8.663-.87a1.821,1.821,0,0,0-1.98,1.66l-0.84,8.67h-1.432a1.917,1.917,0,0,0-1.894,1.93v0.51a2.536,2.536,0,0,0-1.449,2.3h0v19.43h0a2.513,2.513,0,0,0,2.484,2.53h31.188a2.513,2.513,0,0,0,2.484-2.53h0v-5.4h0.587a1.267,1.267,0,0,0,1.257-1.28v-6.08A1.267,1.267,0,0,0,592.743,1105.18Zm-3.534-8.99a0.788,0.788,0,0,1,.776.79v0.29c-0.1-.01-0.207-0.02-0.313-0.02H587.3l0.709-1.06h1.2ZM577,1083.2a0.7,0.7,0,0,1,.444-0.3,0.57,0.57,0,0,1,.13-0.01,0.679,0.679,0,0,1,.388.12l11.38,7.91a0.714,0.714,0,0,1,.182.98l-3.576,5.35h-0.859l1.754-2.62a1.35,1.35,0,0,0,.061-1.41,3.258,3.258,0,0,1-.375-1.97,1.348,1.348,0,0,0-.565-1.28l-5.9-4.1a1.291,1.291,0,0,0-1.375-.07,3.1,3.1,0,0,1-1.931.37,1.308,1.308,0,0,0-1.268.57l-7.026,10.51h-0.858Zm0.246,9.68a4.646,4.646,0,0,0-4.6,4.37h-2.833l6.6-9.87h0a0.214,0.214,0,0,1,.163-0.09,0.029,0.029,0,0,1,.026.01,4.218,4.218,0,0,0,2.626-.5,0.214,0.214,0,0,1,.2.01l5.9,4.1a0.213,0.213,0,0,1,.087.19,4.424,4.424,0,0,0,.509,2.68,0.2,0.2,0,0,1-.011.21l-2.182,3.26h-1.895A4.646,4.646,0,0,0,577.246,1092.88Zm3.475,4.37h-6.949A3.484,3.484,0,0,1,580.721,1097.25Zm-22.154-.27a0.788,0.788,0,0,1,.776-0.79h1.321l-0.1,1.06h-2v-0.27Zm-1.449,2.81a1.386,1.386,0,0,1,1.366-1.4h31.188a1.386,1.386,0,0,1,1.366,1.4v1.58h-33.92v-1.58Zm33.92,16.7H563.711a0.57,0.57,0,0,0-.559.58,0.559,0.559,0,0,0,.559.56h27.327v1.59a1.384,1.384,0,0,1-1.366,1.39H558.484a1.384,1.384,0,0,1-1.366-1.39v-1.59h3.014a0.559,0.559,0,0,0,.559-0.56,0.57,0.57,0,0,0-.559-0.58h-3.014v-13.98h33.92v2.67h-5.314a4.235,4.235,0,0,0-3.814,2.43,0.159,0.159,0,0,1-.007.02,0.131,0.131,0,0,0-.016.04,3.919,3.919,0,0,0-.212.55h0a4.367,4.367,0,0,0-.191,1.28h0a4.28,4.28,0,0,0,4.24,4.32h5.314v2.67h0Zm1.844-3.95a0.138,0.138,0,0,1-.139.14h-7.019a3.114,3.114,0,0,1-2.744-1.66c-0.024-.05-0.047-0.09-0.069-0.14-0.044-.09-0.084-0.19-0.119-0.28a3.268,3.268,0,0,1-.19-1.1,3.235,3.235,0,0,1,.19-1.09c0.035-.1.075-0.19,0.119-0.29,0.022-.04.045-0.09,0.069-0.13a3.1,3.1,0,0,1,2.744-1.67h7.019a0.138,0.138,0,0,1,.139.14v6.08h0Zm-7.027-5.35a2.31,2.31,0,1,0,2.268,2.31A2.294,2.294,0,0,0,585.855,1107.19Zm0,3.48a1.17,1.17,0,1,1,1.15-1.17A1.158,1.158,0,0,1,585.855,1110.67Z" transform="translate(-556 -1081.75)"/>
</svg>
