<svg xmlns="http://www.w3.org/2000/svg" width="38" height="40" viewBox="0 0 38 40">
  <metadata><?xpacket begin="﻿" id="W5M0MpCehiHzreSzNTczkc9d"?>
<x:xmpmeta xmlns:x="adobe:ns:meta/" x:xmptk="Adobe XMP Core 5.6-c138 79.159824, 2016/09/14-01:09:01        ">
   <rdf:RDF xmlns:rdf="http://www.w3.org/1999/02/22-rdf-syntax-ns#">
      <rdf:Description rdf:about=""/>
   </rdf:RDF>
</x:xmpmeta>
                                                                                                    
                                                                                                    
                                                                                                    
                                                                                                    
                                                                                                    
                                                                                                    
                                                                                                    
                                                                                                    
                                                                                                    
                                                                                                    
                                                                                                    
                                                                                                    
                                                                                                    
                                                                                                    
                                                                                                    
                                                                                                    
                                                                                                    
                                                                                                    
                                                                                                    
                                                                                                    
                           
<?xpacket end="w"?></metadata>
<defs>
    <style>
      .cls-1 {
        fill: #629fd1;
        fill-rule: evenodd;
      }
    </style>
  </defs>
  <path id="Иконка" class="cls-1" d="M1137,2101.28v-0.06c0-.01-0.01-0.02-0.01-0.03v-0.03a0.035,0.035,0,0,1-.01-0.02,0.037,0.037,0,0,0-.01-0.03v-0.02a0.147,0.147,0,0,1-.02-0.04h0l-4.4-9.98h3.22a1.035,1.035,0,0,0,1.02-1.04v-1.38a1.035,1.035,0,0,0-1.02-1.04h-5.19a3.435,3.435,0,0,1-2.57-1.14,6.234,6.234,0,0,0-4.59-1.98h-3.58v-1.29a2.973,2.973,0,0,0,1.04-2.26,2.881,2.881,0,1,0-5.76,0,2.973,2.973,0,0,0,1.04,2.26v1.29h-3.58a6.234,6.234,0,0,0-4.59,1.98,3.435,3.435,0,0,1-2.57,1.14h-5.19a1.035,1.035,0,0,0-1.02,1.04v1.38a1.035,1.035,0,0,0,1.02,1.04h3.21l-4.39,9.98h0a0.147,0.147,0,0,1-.02.04v0.02a0.037,0.037,0,0,0-.01.03c0,0.01-.01.02-0.01,0.03v0.02c0,0.01-.01.02-0.01,0.03v0.63a5.189,5.189,0,0,0,5.12,5.24h0.44a5.189,5.189,0,0,0,5.12-5.24v-0.63a0.037,0.037,0,0,1-.01-0.03v-0.03c-0.01,0-.01-0.01-0.01-0.02s-0.01-.02-0.01-0.03v-0.02a0.147,0.147,0,0,1-.02-0.04h0l-4.4-9.98h0.4a6.218,6.218,0,0,0,4.59-1.98,3.456,3.456,0,0,1,2.58-1.14h3.36v23.04h-5.82a1.75,1.75,0,0,0-1.73,1.76v1.03h-0.99a1.784,1.784,0,0,0-1.76,1.8v1.84a0.578,0.578,0,0,0,.57.58h23.14a0.578,0.578,0,0,0,.57-0.58v-1.84a1.784,1.784,0,0,0-1.76-1.8h-0.99v-1.03a1.75,1.75,0,0,0-1.73-1.76h-5.82v-16.72a0.576,0.576,0,0,0-.57-0.57,0.568,0.568,0,0,0-.56.57v16.72h-1.42v-23.04h1.42v2.67a0.561,0.561,0,0,0,.56.57,0.57,0.57,0,0,0,.57-0.57v-2.67h3.59a3.017,3.017,0,0,1,2.17.95,6.792,6.792,0,0,0,4.98,2.17h0.18l-4.39,9.98h0a0.147,0.147,0,0,1-.02.04v0.02a0.037,0.037,0,0,0-.01.03,0.035,0.035,0,0,1-.01.02v0.03a0.037,0.037,0,0,1-.01.03v0.63a5.189,5.189,0,0,0,5.12,5.24h0.44a5.189,5.189,0,0,0,5.12-5.24v-0.57Zm-19-22.12a1.771,1.771,0,0,1,1.75,1.78,1.825,1.825,0,0,1-.81,1.51,0.251,0.251,0,0,0-.07.04,0.053,0.053,0,0,0-.03.02c-0.03.01-.06,0.03-0.09,0.04-0.01.01-.02,0.01-0.03,0.02-0.03.01-.05,0.02-0.08,0.03a0.037,0.037,0,0,1-.03.01,0.418,0.418,0,0,1-.1.04,0.037,0.037,0,0,0-.03.01c-0.03.01-.05,0.01-0.08,0.02a0.037,0.037,0,0,0-.03.01,0.425,0.425,0,0,0-.11.02h-0.02c-0.03,0-.06.01-0.1,0.01h-0.03c-0.03,0-.07.01-0.11,0.01s-0.08-.01-0.11-0.01h-0.03c-0.04,0-.07-0.01-0.1-0.01h-0.02a0.425,0.425,0,0,0-.11-0.02,0.037,0.037,0,0,0-.03-0.01,0.235,0.235,0,0,0-.08-0.02,0.037,0.037,0,0,0-.03-0.01,0.418,0.418,0,0,1-.1-0.04,0.037,0.037,0,0,1-.03-0.01c-0.03-.01-0.05-0.02-0.08-0.03-0.01-.01-0.02-0.01-0.03-0.02-0.03-.01-0.06-0.03-0.09-0.04a0.053,0.053,0,0,0-.03-0.02,0.574,0.574,0,0,0-.07-0.04,1.825,1.825,0,0,1-.81-1.51A1.771,1.771,0,0,1,1118,2079.16Zm0.71,4.63v0.7h-1.42v-0.7a0.037,0.037,0,0,0,.03.01l0.13,0.03a0.06,0.06,0,0,1,.04.01,0.675,0.675,0,0,1,.14.02h0.03c0.11,0.01.22,0.02,0.34,0.02h0.18c0.05-.01.11-0.01,0.16-0.02h0.03a0.675,0.675,0,0,1,.14-0.02,0.048,0.048,0,0,1,.04-0.01l0.13-.03A0.037,0.037,0,0,0,1118.71,2083.79Zm-14.15,22.14h-0.44a4.038,4.038,0,0,1-3.99-4.07h8.42A4.044,4.044,0,0,1,1104.56,2105.93Zm3.68-5.22h-7.8l3.89-8.85Zm17.42,11.43h0a0.61,0.61,0,0,1,.6.61v1.03h-11.81a0.58,0.58,0,0,0,0,1.16h13.93a0.634,0.634,0,0,1,.62.64v1.26h-22v-1.26a0.634,0.634,0,0,1,.62-0.64h3.21a0.58,0.58,0,0,0,0-1.16h-1.09v-1.03a0.61,0.61,0,0,1,.6-0.61h15.32Zm4.92-22.23a5.663,5.663,0,0,1-4.16-1.81,4.163,4.163,0,0,0-2.99-1.31H1112.8a4.543,4.543,0,0,0-3.4,1.51,5.15,5.15,0,0,1-3.77,1.61h-5.29v-1.14h5.08a4.579,4.579,0,0,0,3.4-1.51,5.074,5.074,0,0,1,3.76-1.61h10.84a5.074,5.074,0,0,1,3.76,1.61,4.579,4.579,0,0,0,3.4,1.51h5.08v1.14h-5.08Zm1.07,1.95,3.91,8.85h-7.8Zm0.23,14.07h-0.44a4.038,4.038,0,0,1-3.99-4.07h8.42A4.038,4.038,0,0,1,1131.88,2105.93Z" transform="translate(-1099 -2078)"/>
</svg>
