<svg xmlns="http://www.w3.org/2000/svg" viewBox="0 0 355.43 141.76"><title>ТАБИЯ 2</title><path d="M198.79,0h40.5L236,14.45h-40.5ZM303.45,75.86c-1.21.77-2.65,1.71-4.37,2.79a33.06,33.06,0,0,1-4.7,2.6,42.75,42.75,0,0,1-5.57,1.86,32.85,32.85,0,0,1-7.22.63c-5,0-9-1.39-12.13-4.15a13.82,13.82,0,0,1-4.69-10.82,20.71,20.71,0,0,1,3.34-11.93A22.41,22.41,0,0,1,278,49.05a54.54,54.54,0,0,1,14.6-4c5.65-.81,11.76-1.43,18.36-1.8,0-.22.11-.56.22-1a6.84,6.84,0,0,0,.18-1.63,5.29,5.29,0,0,0-3.5-5.24c-2.31-1-5.79-1.52-10.41-1.52a38.75,38.75,0,0,0-10.36,1.59c-3.79,1-6.64,1.93-8.53,2.63h-1.75l2.79-14c2.22-.55,5.67-1.2,10.32-1.91a92.84,92.84,0,0,1,13.88-1q14,0,20.47,3.64a12.11,12.11,0,0,1,6.53,11.31,27.25,27.25,0,0,1-.18,2.75,22.29,22.29,0,0,1-.51,3l-9.27,40.36H302Zm5-21.77c-3.41.29-6.62.62-9.59,1a37.51,37.51,0,0,0-7.63,1.68,11,11,0,0,0-4.94,3.28,8.67,8.67,0,0,0-1.71,5.59,4.47,4.47,0,0,0,2.27,4.29,14,14,0,0,0,6.6,1.25,16.62,16.62,0,0,0,6.06-1.28,30.61,30.61,0,0,0,6.06-3.28ZM267.6,0l-3.32,14.39H244.12L247.44,0Zm-5.8,22.83L248.07,82.12H229L242.7,22.83ZM203.21,45.3c0-3.3-.72-5.83-2.16-7.56s-3.93-2.58-7.47-2.58a16,16,0,0,0-5.48,1,45.62,45.62,0,0,0-5.68,2.56l-6.83,29.77a22.58,22.58,0,0,0,3.89,1.19,21.77,21.77,0,0,0,4.63.45,16.44,16.44,0,0,0,13.94-7Q203.23,56.22,203.21,45.3Zm20.12-3.5a47.64,47.64,0,0,1-2.61,15.68,43.23,43.23,0,0,1-7.14,13.26,36.35,36.35,0,0,1-10.87,9.16A28.18,28.18,0,0,1,189,83.31a36.3,36.3,0,0,1-8.89-1,22.22,22.22,0,0,1-7-3.14l-1.39,3H153.33L172.31,0h19.12l-6.72,29a66,66,0,0,1,9.72-5.68,24.29,24.29,0,0,1,10.29-2.15q9.18,0,13.89,5.47T223.33,41.8ZM118.55,75.86c-1.21.77-2.65,1.71-4.36,2.79a33.67,33.67,0,0,1-4.71,2.6,42.26,42.26,0,0,1-5.57,1.86,32.81,32.81,0,0,1-7.21.63q-7.44,0-12.14-4.15a13.82,13.82,0,0,1-4.69-10.82,20.71,20.71,0,0,1,3.34-11.93,22.52,22.52,0,0,1,9.86-7.79,54.62,54.62,0,0,1,14.61-4c5.64-.81,11.75-1.43,18.35-1.8,0-.22.11-.56.22-1a6.36,6.36,0,0,0,.18-1.63,5.29,5.29,0,0,0-3.5-5.24c-2.31-1-5.79-1.52-10.4-1.52a38.82,38.82,0,0,0-10.37,1.59c-3.79,1-6.64,1.93-8.53,2.63H91.88l2.8-14c2.22-.55,5.66-1.2,10.31-1.91a92.87,92.87,0,0,1,13.89-1q14,0,20.46,3.64a12.09,12.09,0,0,1,6.53,11.31,24.57,24.57,0,0,1-.18,2.75,22.29,22.29,0,0,1-.51,3l-9.26,40.36H117.11Zm5-21.77c-3.41.29-6.62.62-9.6,1a37.4,37.4,0,0,0-7.62,1.68,10.89,10.89,0,0,0-4.94,3.28,8.62,8.62,0,0,0-1.72,5.59,4.47,4.47,0,0,0,2.27,4.29,14,14,0,0,0,6.6,1.25,16.62,16.62,0,0,0,6.06-1.28,30.06,30.06,0,0,0,6.06-3.28Zm-69,29.22c-6.6,0-11.32-1.09-14.13-3.25s-4.24-5.37-4.24-9.63a19.53,19.53,0,0,1,.27-3.28c.16-1.05.4-2.29.68-3.7l6.5-28.07H35.8l2.74-11.85a28.94,28.94,0,0,0-8.08,14L15,107.3a21.92,21.92,0,0,0-.52,4.77h0a15.63,15.63,0,0,0,3.13,9.73,14.33,14.33,0,0,0,8.33,5.1,19.73,19.73,0,0,0,4.21.42h265.8c6.21,0,12.54-2.62,17.72-6.84a30.45,30.45,0,0,0,10.69-16.34l16.15-69.73a21.76,21.76,0,0,0,.56-4.82A15.43,15.43,0,0,0,337.94,20a14.42,14.42,0,0,0-8.26-5.11,19.73,19.73,0,0,0-4.37-.46H271.38L274.71,0h50.6a33.2,33.2,0,0,1,7.59.86,28.68,28.68,0,0,1,16.38,10.3,29.65,29.65,0,0,1,6.15,18.42,35.28,35.28,0,0,1-.95,8l-16.14,69.73a45,45,0,0,1-15.66,24.29c-7.66,6.23-17.22,10.11-26.8,10.11H30.08a33.77,33.77,0,0,1-7.31-.81A28.64,28.64,0,0,1,6.2,130.66,29.9,29.9,0,0,1,0,112.07H0a36.6,36.6,0,0,1,.91-7.87l15.5-69.73A44.44,44.44,0,0,1,32,10.13,47.33,47.33,0,0,1,44.34,2.86L39.86,22.29l-.58.54h7.27L51.75.74A44.57,44.57,0,0,1,60.5,0H71.07L65.7,22.83H83.5L80.59,35.38H62.8l-5,21.42c-.36,1.48-.7,3-1,4.47a18.86,18.86,0,0,0-.48,3.82c0,2.13.59,3.59,1.78,4.42a9.65,9.65,0,0,0,5.48,1.25,18.2,18.2,0,0,0,3.92-.58,18.93,18.93,0,0,0,3.84-1.26h1.58l-3,12.69a56.17,56.17,0,0,1-6.8,1.25A70.08,70.08,0,0,1,54.59,83.31Zm-11.4,26.17H26.79l1.42-6.2H44.6Zm19-22.3L54.4,120.6H46.63l7.72-33.42ZM76.9,118.06l-1.77,1.14a13.42,13.42,0,0,1-1.92,1A17.17,17.17,0,0,1,71,121a13.25,13.25,0,0,1-2.93.25,7.22,7.22,0,0,1-4.94-1.68,5.62,5.62,0,0,1-1.9-4.4,8.41,8.41,0,0,1,1.35-4.85,9.19,9.19,0,0,1,4-3.17,22.27,22.27,0,0,1,5.94-1.61c2.29-.33,4.78-.58,7.46-.73l.09-.42a2.73,2.73,0,0,0,.07-.66,2.16,2.16,0,0,0-1.42-2.14,11.12,11.12,0,0,0-4.23-.61,15.74,15.74,0,0,0-4.21.64c-1.54.43-2.7.79-3.47,1.07h-.71L67.19,97q1.36-.34,4.2-.78A38.34,38.34,0,0,1,77,95.8c3.78,0,6.56.49,8.32,1.48a4.92,4.92,0,0,1,2.66,4.6,11.18,11.18,0,0,1-.08,1.12,8.81,8.81,0,0,1-.2,1.2L84,120.6H76.31Zm2-8.85c-1.38.12-2.69.25-3.9.41a15.65,15.65,0,0,0-3.1.68,4.48,4.48,0,0,0-2,1.34,3.51,3.51,0,0,0-.69,2.27,1.82,1.82,0,0,0,.92,1.75,5.78,5.78,0,0,0,2.68.5,6.63,6.63,0,0,0,2.46-.52,12,12,0,0,0,2.47-1.33ZM135.11,96.5l-12.63,24.1h-8.22l-1.63-16.3-8.13,16.3H96.18L93.9,96.5h7.91l.71,16.66,8.55-16.66H118l1.52,16.67L127,96.5Zm29.74-9.28-1.35,5.85h-8.19l1.35-5.85Zm-2.36,9.28-5.58,24.1h-7.76l5.58-24.1ZM192.42,102a11.68,11.68,0,0,1-.09,1.39,11.82,11.82,0,0,1-.28,1.57l-3.6,15.68h-7.78l2.7-11.94c.2-.88.36-1.64.47-2.27a10.07,10.07,0,0,0,.16-1.75,2.64,2.64,0,0,0-.7-2,3.89,3.89,0,0,0-2.59-.64,7,7,0,0,0-2.12.39,18.39,18.39,0,0,0-2.7,1.19L172,120.6h-7.78l5.58-24.1h7.78l-.64,2.66a32.35,32.35,0,0,1,4.35-2.44,10.56,10.56,0,0,1,4.32-.88,7.41,7.41,0,0,1,5.05,1.57A5.7,5.7,0,0,1,192.42,102Zm12.38,19.3a30.27,30.27,0,0,1-6-.58,18.39,18.39,0,0,1-4.44-1.34l1.48-6.34h.71q.48.41,1.2.9a11.74,11.74,0,0,0,2.05,1,15.91,15.91,0,0,0,2.65.85,14.43,14.43,0,0,0,3.24.35,9.77,9.77,0,0,0,3.91-.6,1.91,1.91,0,0,0,1.3-1.72,1.42,1.42,0,0,0-.93-1.31,21.43,21.43,0,0,0-3.83-1.11c-3.28-.77-5.53-1.68-6.75-2.75a5.14,5.14,0,0,1-1.82-4,7.3,7.3,0,0,1,3.65-6.43q3.65-2.34,9.88-2.35a27.59,27.59,0,0,1,5.41.55,17.37,17.37,0,0,1,4,1.18l-1.42,6.1h-.66a12.92,12.92,0,0,0-3.7-1.93,13.44,13.44,0,0,0-4.44-.75,9.7,9.7,0,0,0-3.8.59,1.91,1.91,0,0,0-1.32,1.81,1.58,1.58,0,0,0,1.14,1.45,19.27,19.27,0,0,0,3.59,1,17.75,17.75,0,0,1,6.58,2.49,5,5,0,0,1,2,4.21,7.15,7.15,0,0,1-3.69,6.35Q211.09,121.27,204.8,121.26Zm32.51-34L236,93.07h-8.19l1.34-5.85ZM235,96.5l-5.58,24.1h-7.76l5.58-24.1Zm21.67,5.64a7.7,7.7,0,0,0-1.63-.55,7.42,7.42,0,0,0-1.78-.25,6.7,6.7,0,0,0-3.32.82,7.43,7.43,0,0,0-2.5,2.24,9.82,9.82,0,0,0-1.46,3.24,14.32,14.32,0,0,0-.54,3.79,4.29,4.29,0,0,0,1,3.17,4.16,4.16,0,0,0,3,1,5.81,5.81,0,0,0,2.21-.48,15.22,15.22,0,0,0,2.21-1.11Zm11.23-15-7.73,33.42h-7.78l.58-2.51-2,1.28a12.91,12.91,0,0,1-1.88,1,9.66,9.66,0,0,1-1.9.64,10.34,10.34,0,0,1-2.24.21,7.22,7.22,0,0,1-5.59-2.27,9.18,9.18,0,0,1-2.09-6.46,18.6,18.6,0,0,1,1.1-6.45,18,18,0,0,1,3-5.33,14.54,14.54,0,0,1,4.46-3.58,11.55,11.55,0,0,1,5.39-1.33,13.43,13.43,0,0,1,3.44.4,13.84,13.84,0,0,1,3,1.24l2.38-10.3ZM281,121.26c-4.12,0-7.29-.91-9.54-2.72a9.22,9.22,0,0,1-3.36-7.54,16.13,16.13,0,0,1,1.1-6,14.13,14.13,0,0,1,8.11-8,17.63,17.63,0,0,1,6.52-1.17c3.6,0,6.31.72,8.14,2.18a7.72,7.72,0,0,1,2.74,6.44,13.51,13.51,0,0,1-.29,2.85,22.75,22.75,0,0,1-.76,2.77h-18v.5a4.71,4.71,0,0,0,1.77,3.9q1.77,1.41,5.42,1.41a13.64,13.64,0,0,0,4.83-.86,22.15,22.15,0,0,0,4-1.91h.86l-1.44,6.22a23.37,23.37,0,0,1-4.76,1.5A27.2,27.2,0,0,1,281,121.26Zm5.93-15.79c0-.25.08-.49.1-.71s0-.43,0-.66a3.25,3.25,0,0,0-1.06-2.61,4.61,4.61,0,0,0-3.05-.9,6.35,6.35,0,0,0-4,1.29,8,8,0,0,0-2.49,3.59Zm27.35,4h-16.4l1.42-6.2h16.39ZM80.42,0h83l-3.32,14.44h-83Z"/></svg>